<?xml version="1.0" encoding="UTF-8" standalone="no"?>
<svg width="10px" height="20px" viewBox="0 0 10 20" version="1.1" xmlns="http://www.w3.org/2000/svg" xmlns:xlink="http://www.w3.org/1999/xlink">
    <!-- Generator: sketchtool 39.1 (31720) - http://www.bohemiancoding.com/sketch -->
    <title>DE66AAA4-17A6-4FB6-8E20-3255A2AFDC94</title>
    <desc>Created with sketchtool.</desc>
    <defs></defs>
    <g id="Page-1" stroke="none" stroke-width="1" fill="none" fill-rule="evenodd">
        <g id="public_page_1200" transform="translate(-1066.000000, -2080.000000)" fill="#8C9399">
            <g id="footer" transform="translate(0.000000, 2052.000000)">
                <path d="M1066,34.6138889 L1068.14232,34.6138889 L1068.14232,32.605 C1068.14232,31.7183333 1068.16535,30.3516667 1068.83206,29.505 C1069.53503,28.6088889 1070.4994,28 1072.15867,28 C1074.86177,28 1076,28.3716667 1076,28.3716667 L1075.46399,31.4355556 C1075.46399,31.4355556 1074.57159,31.1855556 1073.7385,31.1855556 C1072.90483,31.1855556 1072.15867,31.4738889 1072.15867,32.2777778 L1072.15867,34.6138889 L1075.57568,34.6138889 L1075.33733,37.6061111 L1072.15867,37.6061111 L1072.15867,48 L1068.14232,48 L1068.14232,37.6061111 L1066,37.6061111 L1066,34.6138889" id="fb_foot"></path>
            </g>
        </g>
    </g>
</svg>