<?xml version="1.0" encoding="UTF-8" standalone="no"?>
<svg width="20px" height="16px" viewBox="0 0 20 16" version="1.1" xmlns="http://www.w3.org/2000/svg" xmlns:xlink="http://www.w3.org/1999/xlink">
    <!-- Generator: sketchtool 39.1 (31720) - http://www.bohemiancoding.com/sketch -->
    <title>2FA6C9FF-036E-4538-9FA8-6C2E0E524712</title>
    <desc>Created with sketchtool.</desc>
    <defs></defs>
    <g id="Page-1" stroke="none" stroke-width="1" fill="none" fill-rule="evenodd">
        <g id="public_page_1200" transform="translate(-1028.000000, -2084.000000)" fill="#8C9399">
            <g id="footer" transform="translate(0.000000, 2052.000000)">
                <path d="M1048,33.894449 C1047.26389,34.2154772 1046.47278,34.432595 1045.64333,34.5299426 C1046.49167,34.0300793 1047.14222,33.2392672 1047.44722,32.2964178 C1046.65389,32.7590922 1045.77722,33.0948865 1044.84056,33.2748154 C1044.09444,32.4900191 1043.02667,32 1041.84611,32 C1039.58111,32 1037.74389,33.8085863 1037.74389,36.0388296 C1037.74389,36.3560295 1037.77889,36.6633853 1037.85,36.9587093 C1034.44056,36.7897183 1031.41722,35.1834837 1029.39167,32.7383101 C1029.03833,33.3366147 1028.83722,34.0300793 1028.83722,34.770577 C1028.83722,36.1706317 1029.56167,37.4071643 1030.66167,38.1323489 C1029.99056,38.1121138 1029.35667,37.9289035 1028.80222,37.6281105 L1028.80222,37.6773311 C1028.80222,39.635767 1030.21722,41.2682527 1032.095,41.6379546 C1031.75111,41.7325677 1031.38944,41.7801477 1031.01389,41.7801477 C1030.74944,41.7801477 1030.49222,41.7560842 1030.24222,41.7085042 C1030.76444,43.3130982 1032.27833,44.4812688 1034.075,44.5124419 C1032.67,45.5963905 1030.9,46.2417282 1028.97889,46.2417282 C1028.64778,46.2417282 1028.32056,46.2236806 1028,46.1859448 C1029.81611,47.3311457 1031.97278,48 1034.28889,48 C1041.83833,48 1045.96389,41.8463221 1045.96389,36.5080667 C1045.96389,36.332513 1045.96056,36.1575062 1045.95278,35.9852338 C1046.755,35.4153678 1047.45222,34.7038556 1048,33.894449" id="twi_foot"></path>
            </g>
        </g>
    </g>
</svg>